<svg xmlns="http://www.w3.org/2000/svg" xmlns:xlink="http://www.w3.org/1999/xlink" version="1.2" baseProfile="tiny" id="Layer_1" x="0px" y="0px" width="127px" height="85px" viewBox="0 0 127 85" xml:space="preserve">
<g>
	<g>
		<g>
			<path d="M9.108 0.303l2.16-0.043C19.391 0.1 23.8 0 24.6 0c10.427 0 18.2 2.6 23.4 7.8 c5.199 5.2 7.8 12.8 7.8 22.813c0 6.424-1.26 12.048-3.78 16.873c-2.521 4.824-6.186 8.555-10.996 11.2 c-4.811 2.635-10.558 3.953-17.24 3.953c-0.807 0-2.729-0.043-5.768-0.131c-3.039-0.086-5.25-0.129-6.632-0.129 c-4.839 0-8.498 0.086-10.975 0.26v-1.771c2.131-0.086 3.68-0.316 4.645-0.691c0.965-0.375 1.627-1.066 1.987-2.074 c0.36-1.008 0.54-2.621 0.54-4.84V9.376c0-2.218-0.18-3.83-0.54-4.839c-0.36-1.008-1.022-1.699-1.987-2.074 C4.146 2.1 2.6 1.9 0.5 1.771V0C3.635 0.2 6.5 0.3 9.1 0.303z M16.367 58.2 c0.346 1.1 1 1.8 1.9 2.203c0.936 0.4 2.3 0.6 4.2 0.627c6.279 0 11.205-1.137 14.777-3.412 c3.571-2.275 6.084-5.596 7.54-9.959C46.272 43.3 47 37.7 47 30.979c0-6.798-0.792-12.335-2.376-16.613 c-1.584-4.277-4.17-7.475-7.756-9.592s-8.404-3.176-14.453-3.176c-1.844 0-3.226 0.21-4.148 0.6 c-0.922 0.418-1.555 1.16-1.901 2.226s-0.519 2.65-0.519 4.752v44.245C15.848 55.6 16 57.2 16.4 58.221z"/>
		</g>
		<g>
			<path d="M122.14 2.463c-0.965 0.375-1.627 1.066-1.987 2.074c-0.36 1.009-0.54 2.621-0.54 4.839v43.898 c0 2.2 0.2 3.8 0.5 4.84s1.022 1.7 2 2.074s2.513 0.6 4.6 0.691v1.771c-2.766-0.174-6.511-0.26-11.234-0.26 c-5.07 0-8.843 0.086-11.32 0.26v-1.771c2.132-0.086 3.673-0.316 4.623-0.691c0.951-0.375 1.605-1.066 1.967-2.074 c0.359-1.008 0.54-2.621 0.54-4.84V5.92L90.059 63.083h-1.426L66.338 5.66v46.708c0 2.3 0.2 4 0.6 5.1 c0.403 1.2 1.2 2 2.3 2.484c1.108 0.5 2.8 0.8 5.2 0.887v1.771c-2.103-0.174-5.113-0.26-9.03-0.26 c-3.515 0-6.251 0.086-8.209 0.26v-1.771c2.045-0.086 3.565-0.383 4.559-0.887s1.678-1.332 2.052-2.484 c0.374-1.15 0.562-2.865 0.562-5.141V9.376c0-2.218-0.18-3.83-0.54-4.839c-0.36-1.008-1.022-1.699-1.987-2.074 c-0.965-0.374-2.514-0.604-4.645-0.691V0c1.93 0.2 4.7 0.3 8.2 0.26c3.111 0 5.631-0.087 7.561-0.26l19.443 51.3 L111.36 0.26h4.19c4.724 0 8.469-0.087 11.234-0.26v1.771C124.652 1.9 123.1 2.1 122.1 2.463z"/>
		</g>
	</g>
	<g>
		<path d="M9.58 70.875c-0.185 0.092-0.31 0.246-0.377 0.461c-0.067 0.213-0.101 0.531-0.101 0.953v4.941 c0 0.787-0.052 1.463-0.156 2.025c-0.104 0.564-0.277 1.051-0.518 1.457c-0.278 0.471-0.683 0.844-1.215 1.1 c-0.532 0.275-1.13 0.412-1.793 0.412c-1.203 0-2.123-0.297-2.76-0.891c-0.326-0.305-0.576-0.627-0.75-0.965 c-0.174-0.34-0.295-0.75-0.365-1.232c-0.07-0.48-0.104-1.107-0.104-1.877v-5.158c0-0.412-0.033-0.711-0.1-0.898 s-0.19-0.314-0.369-0.385s-0.466-0.111-0.862-0.129v-0.328c0.465 0 1.2 0 2.1 0.049c0.883 0 1.581-0.018 2.094-0.049 v0.328c-0.396 0.018-0.683 0.059-0.862 0.129s-0.302 0.197-0.369 0.385s-0.1 0.486-0.1 0.898v5.439 c0 0.9 0.1 1.6 0.2 2.182c0.117 0.6 0.4 1 0.7 1.396c0.377 0.4 0.9 0.5 1.7 0.5 c1.16 0 1.976-0.373 2.446-1.115c0.471-0.744 0.706-1.789 0.706-3.137V72.29c0-0.406-0.047-0.719-0.141-0.938 c-0.093-0.219-0.246-0.377-0.457-0.473c-0.211-0.098-0.509-0.152-0.895-0.17v-0.328c0.396 0 1 0 1.7 0 c0.658 0 1.166-0.018 1.524-0.049v0.328C10.046 70.7 9.8 70.8 9.6 70.875z"/>
		<path d="M20.437 81.342c0.102 0.1 0.2 0.2 0.3 0.236c0.112 0 0.3 0.1 0.4 0.09v0.344 c-0.749-0.043-1.219-0.064-1.412-0.064c-0.369 0-1.142 0.021-2.318 0.064v-0.344c0.428 0 0.73-0.02 0.907-0.057 c0.176-0.037 0.265-0.107 0.265-0.209c0-0.08-0.04-0.18-0.12-0.297l-2.808-4.299l-1.773 2.6 c-0.417 0.621-0.625 1.102-0.625 1.443c0 0.3 0.1 0.5 0.4 0.594c0.249 0.1 0.6 0.2 1.1 0.193v0.328 c-0.621-0.031-1.359-0.047-2.214-0.047c-0.604 0-1.069 0.016-1.396 0.047v-0.328c0.326-0.049 0.638-0.195 0.935-0.441 c0.296-0.246 0.603-0.602 0.918-1.066l2.479-3.699l-3.217-4.934c-0.139-0.219-0.259-0.383-0.361-0.492s-0.208-0.189-0.321-0.236 c-0.112-0.049-0.251-0.078-0.417-0.088v-0.346c0.749 0 1.2 0.1 1.4 0.064c0.732 0 1.505-0.021 2.318-0.064v0.346 c-0.733 0-1.099 0.119-1.099 0.359c0 0.1 0 0.2 0.1 0.361l2.559 3.914l1.612-2.414c0.476-0.711 0.714-1.238 0.714-1.58 c0-0.23-0.106-0.395-0.317-0.492c-0.211-0.1-0.531-0.154-0.958-0.166v-0.328c0.625 0 1.3 0 1.9 0 c0.599 0 1.064-0.018 1.396-0.049v0.328c-0.332 0.049-0.646 0.197-0.942 0.445c-0.297 0.25-0.601 0.604-0.911 1.063l-2.302 3.4 l3.401 5.199C20.215 81.1 20.3 81.2 20.4 81.342z"/>
		<path d="M26.638 85.213V67.918h0.658v17.295H26.638z"/>
		<path d="M38.341 70.43c1.609 0 2.754-0.018 3.433-0.049c-0.075 0.781-0.112 1.48-0.112 2.102c0 0.6 0 1 0 1.348h-0.377 c-0.086-0.85-0.195-1.48-0.329-1.889c-0.134-0.41-0.365-0.709-0.694-0.898c-0.329-0.189-0.833-0.285-1.512-0.285h-1.035 c-0.396 0-0.683 0.031-0.862 0.096s-0.302 0.189-0.369 0.373c-0.067 0.186-0.1 0.482-0.1 0.895v4.043h1.203 c0.551 0 0.917-0.164 1.099-0.492c0.182-0.33 0.294-0.666 0.337-1.008c0.042-0.342 0.072-0.564 0.088-0.666h0.377 c-0.038 0.535-0.056 1.051-0.056 1.549l0.008 0.777c0 0.6 0 1.4 0.1 2.334h-0.385c-0.011-0.074-0.042-0.338-0.092-0.793 s-0.199-0.797-0.445-1.027c-0.246-0.23-0.591-0.344-1.035-0.344h-1.203v3.777c0 0.4 0 0.7 0.1 0.9 c0.085 0.2 0.2 0.3 0.5 0.385c0.225 0.1 0.6 0.1 1.1 0.129v0.328c-0.567-0.031-1.372-0.047-2.415-0.047 c-0.941 0-1.642 0.016-2.102 0.047v-0.328c0.396-0.016 0.683-0.059 0.862-0.129c0.179-0.068 0.302-0.197 0.369-0.385 s0.101-0.486 0.101-0.898v-8.15c0-0.412-0.034-0.711-0.101-0.898s-0.19-0.314-0.369-0.385s-0.466-0.111-0.862-0.129v-0.328 C34.651 70.4 36.2 70.4 38.3 70.43z"/>
		<path d="M52.315 81.997c-0.251 0.166-0.583 0.248-0.995 0.248c-0.449 0-0.818-0.131-1.107-0.393 c-0.289-0.262-0.508-0.725-0.658-1.387l-0.361-1.637c-0.128-0.572-0.25-1.012-0.365-1.32c-0.115-0.307-0.289-0.553-0.521-0.738 c-0.232-0.184-0.555-0.275-0.966-0.275h-1.564v3.777c0 0.4 0 0.7 0.1 0.898s0.19 0.3 0.4 0.4 c0.179 0.1 0.5 0.1 0.9 0.129v0.328c-0.503-0.031-1.198-0.047-2.085-0.047c-0.941 0-1.642 0.016-2.102 0.047v-0.328 c0.396-0.016 0.683-0.059 0.862-0.129c0.179-0.068 0.302-0.197 0.369-0.385s0.101-0.486 0.101-0.898v-8.15 c0-0.412-0.034-0.711-0.101-0.898s-0.19-0.314-0.369-0.385s-0.466-0.111-0.862-0.129v-0.328c0.46 0 1.1 0 2 0 c0.428 0 0.899-0.006 1.416-0.018c0.516-0.01 0.871-0.016 1.063-0.016c0.855 0 1.6 0.1 2.2 0.373s1.04 0.6 1.3 1 c0.299 0.4 0.4 0.9 0.4 1.463c0 0.428-0.101 0.859-0.301 1.297c-0.201 0.436-0.541 0.826-1.019 1.2 c-0.479 0.346-1.103 0.576-1.873 0.693l0.201 0.033c0.492 0.1 0.9 0.2 1.2 0.365c0.294 0.2 0.5 0.4 0.7 0.7 s0.314 0.7 0.4 1.131l0.409 1.676c0.069 0.3 0.1 0.6 0.2 0.791s0.158 0.3 0.3 0.4 c0.099 0.1 0.2 0.1 0.4 0.137c0.182 0 0.332-0.047 0.449-0.141c0.117-0.094 0.267-0.254 0.449-0.484l0.249 0.2 C52.82 81.6 52.6 81.8 52.3 81.997z M48.617 75.811c0.417-0.234 0.706-0.551 0.866-0.945 c0.16-0.396 0.241-0.871 0.241-1.428c0-0.898-0.214-1.578-0.642-2.037c-0.428-0.461-1.123-0.691-2.085-0.691 c-0.342 0-0.599 0.039-0.77 0.117c-0.171 0.078-0.289 0.215-0.353 0.412c-0.064 0.199-0.096 0.492-0.096 0.883v4.043h1.107 C47.623 76.2 48.2 76 48.6 75.811z"/>
		<path d="M61.713 70.854c0.783 0.5 1.4 1.2 1.8 2.051c0.43 0.9 0.6 2 0.6 3.195c0 1.209-0.222 2.279-0.666 3.2 c-0.444 0.932-1.062 1.652-1.853 2.166s-1.693 0.77-2.704 0.77c-1.042 0-1.956-0.234-2.739-0.705 c-0.784-0.471-1.391-1.154-1.821-2.049c-0.431-0.896-0.646-1.963-0.646-3.197c0-1.209 0.222-2.279 0.666-3.209 s1.062-1.652 1.853-2.166s1.692-0.77 2.703-0.77C60.016 70.1 60.9 70.4 61.7 70.854z M57.056 71.2 c-0.535 0.488-0.947 1.17-1.235 2.045c-0.289 0.875-0.433 1.875-0.433 3.004c0 1.1 0.2 2.1 0.5 3 c0.321 0.9 0.8 1.5 1.3 2.006c0.554 0.5 1.2 0.7 1.8 0.705c0.7 0 1.317-0.244 1.849-0.732 c0.532-0.49 0.942-1.172 1.231-2.047c0.289-0.873 0.433-1.875 0.433-3.004c0-1.139-0.16-2.141-0.481-3.008 s-0.757-1.535-1.308-2.006s-1.163-0.705-1.837-0.705C58.208 70.4 57.6 70.7 57.1 71.18z"/>
		<path d="M75.085 70.875c-0.185 0.092-0.312 0.246-0.381 0.461c-0.07 0.213-0.104 0.531-0.104 0.953v9.803h-0.377l-6.898-10.66 v8.672c0 0.4 0 0.7 0.1 0.955c0.075 0.2 0.2 0.4 0.4 0.461s0.525 0.1 1 0.164v0.328 c-0.39-0.031-0.949-0.047-1.676-0.047c-0.653 0-1.161 0.016-1.524 0.047v-0.328c0.38-0.016 0.662-0.07 0.847-0.164 c0.184-0.094 0.312-0.248 0.381-0.461c0.069-0.215 0.104-0.533 0.104-0.955v-7.982c0-0.412-0.034-0.711-0.101-0.898 s-0.19-0.314-0.369-0.385s-0.466-0.111-0.862-0.129v-0.328c0.358 0 0.9 0 1.5 0.049c0.492 0 0.919-0.018 1.283-0.049 l5.8 8.936V72.29c0-0.422-0.036-0.74-0.108-0.953c-0.072-0.215-0.212-0.369-0.421-0.461c-0.208-0.094-0.529-0.148-0.963-0.166 v-0.328c0.391 0 0.9 0 1.7 0.049c0.652 0 1.161-0.018 1.524-0.049v0.328C75.552 70.7 75.3 70.8 75.1 70.875z"/>
		<path d="M77.118 72.483c0-0.643-0.04-1.342-0.12-2.102c0.908 0 2.5 0 4.6 0.049c2.166 0 3.703-0.018 4.611-0.049 c-0.074 0.781-0.111 1.48-0.111 2.102c0 0.6 0 1 0 1.348h-0.377c-0.086-0.85-0.195-1.48-0.326-1.889 c-0.131-0.41-0.361-0.709-0.689-0.898s-0.832-0.285-1.512-0.285h-0.891v9.346c0 0.5 0 0.8 0.1 1 c0.084 0.2 0.2 0.4 0.5 0.438s0.58 0.1 1.1 0.145v0.328c-0.578-0.031-1.383-0.047-2.414-0.047 c-1.096 0-1.906 0.016-2.432 0.047v-0.328c0.488-0.016 0.844-0.064 1.068-0.145s0.379-0.227 0.465-0.438s0.129-0.543 0.129-0.998 v-9.346h-0.891c-0.68 0-1.184 0.096-1.512 0.285c-0.33 0.189-0.561 0.488-0.691 0.898c-0.131 0.408-0.238 1.039-0.324 1.889H77.07 C77.102 73.5 77.1 73 77.1 72.483z"/>
		<path d="M86.889 78.067V77.12h5.937v0.947H86.889z"/>
		<path d="M103.061 79.911c0 0.6 0 1.3 0.1 2.102c-0.743-0.031-1.997-0.047-3.763-0.047c-2.102 0-3.689 0.016-4.765 0 v-0.328c0.396-0.016 0.684-0.059 0.862-0.129c0.18-0.068 0.303-0.197 0.369-0.385c0.067-0.188 0.101-0.486 0.101-0.898v-8.15 c0-0.412-0.033-0.711-0.101-0.898c-0.066-0.188-0.189-0.314-0.369-0.385c-0.179-0.07-0.467-0.111-0.862-0.129v-0.328 c1.075 0 2.7 0 4.8 0.049c1.61 0 2.755-0.018 3.434-0.049c-0.075 0.717-0.112 1.363-0.112 1.9 c0 0.4 0 0.8 0 1.018h-0.377c-0.08-0.711-0.18-1.24-0.301-1.588c-0.12-0.348-0.323-0.6-0.609-0.758 s-0.718-0.236-1.296-0.236h-1.363c-0.396 0-0.684 0.031-0.862 0.096c-0.18 0.064-0.302 0.189-0.369 0.4 c-0.066 0.186-0.101 0.482-0.101 0.895v3.875h1.092c0.551 0 0.917-0.164 1.099-0.494c0.182-0.328 0.294-0.664 0.337-1.006 s0.072-0.564 0.088-0.666h0.377c-0.037 0.541-0.056 1.057-0.056 1.549l0.008 0.785c0 0.6 0 1.3 0.1 2.334h-0.377 c-0.011-0.074-0.042-0.34-0.093-0.793c-0.051-0.455-0.199-0.799-0.445-1.031s-0.591-0.35-1.034-0.35h-1.092v3.947 c0 0.4 0 0.7 0.1 0.895c0.067 0.2 0.2 0.3 0.4 0.373c0.179 0.1 0.5 0.1 0.9 0.096h1.203 c0.685 0 1.205-0.09 1.561-0.271s0.612-0.475 0.77-0.875c0.158-0.4 0.28-0.99 0.365-1.766h0.377 C103.076 79 103.1 79.4 103.1 79.911z"/>
		<path d="M114.118 70.875c-0.185 0.092-0.312 0.246-0.381 0.461c-0.069 0.213-0.104 0.531-0.104 0.953v9.803h-0.377l-6.898-10.66 v8.672c0 0.4 0 0.7 0.1 0.955c0.074 0.2 0.2 0.4 0.4 0.461s0.525 0.1 1 0.164v0.328 c-0.391-0.031-0.949-0.047-1.677-0.047c-0.652 0-1.16 0.016-1.524 0.047v-0.328c0.38-0.016 0.662-0.07 0.847-0.164 s0.312-0.248 0.381-0.461c0.069-0.215 0.104-0.533 0.104-0.955v-7.982c0-0.412-0.033-0.711-0.101-0.898 c-0.066-0.188-0.189-0.314-0.369-0.385c-0.179-0.07-0.467-0.111-0.862-0.129v-0.328c0.358 0 0.9 0 1.5 0 c0.492 0 0.92-0.018 1.283-0.049l5.8 8.936V72.29c0-0.422-0.036-0.74-0.108-0.953c-0.072-0.215-0.212-0.369-0.421-0.461 c-0.209-0.094-0.529-0.148-0.963-0.166v-0.328c0.391 0 0.9 0 1.7 0.049c0.652 0 1.16-0.018 1.524-0.049v0.328 C114.585 70.7 114.3 70.8 114.1 70.875z"/>
		<path d="M117.853 70.438l0.401-0.008c1.508-0.033 2.334-0.049 2.479-0.049c1.936 0 3.4 0.5 4.4 1.5 c0.966 1 1.4 2.4 1.4 4.236c0 1.191-0.234 2.236-0.702 3.133c-0.468 0.895-1.148 1.588-2.041 2.1 c-0.894 0.49-1.961 0.734-3.201 0.734c-0.149 0-0.507-0.008-1.07-0.023c-0.564-0.016-0.976-0.023-1.231-0.023 c-0.898 0-1.578 0.016-2.038 0.047v-0.328c0.396-0.016 0.684-0.059 0.862-0.129c0.18-0.068 0.303-0.197 0.369-0.385 c0.067-0.188 0.101-0.486 0.101-0.898v-8.15c0-0.412-0.033-0.711-0.101-0.898c-0.066-0.188-0.189-0.314-0.369-0.385 c-0.179-0.07-0.467-0.111-0.862-0.129v-0.328C116.837 70.4 117.4 70.4 117.9 70.438z M119.2 81.2 c0.064 0.2 0.2 0.3 0.4 0.41c0.173 0.1 0.4 0.1 0.8 0.115c1.166 0 2.081-0.211 2.744-0.633s1.13-1.039 1.399-1.85 c0.271-0.811 0.405-1.844 0.405-3.1c0-1.262-0.147-2.291-0.441-3.084c-0.294-0.795-0.774-1.389-1.439-1.781 c-0.666-0.393-1.561-0.59-2.684-0.59c-0.342 0-0.599 0.039-0.771 0.115c-0.171 0.078-0.288 0.217-0.353 0.4 s-0.097 0.492-0.097 0.883v8.213C119.104 80.7 119.1 81 119.2 81.19z"/>
	</g>
</g>
</svg>
